<?xml version="1.0" encoding="UTF-8"?><svg xmlns="http://www.w3.org/2000/svg" height="425.2pt" version="1.1" viewBox="0 0 425.2 425.2" width="425.2pt">
 <g id="surface1">
  <g><path d="m265.58 159.27l40.66-46.19-13.55-16.881h-54.22l-13.55 16.881 40.66 46.19" fill="#50c5de"/></g>
  <g><path d="m292.69 96.199h-18.62l8.47 17.551-16.96 45.52 40.66-46.19-13.55-16.881" fill="#5ecae9"/></g>
  <g><path d="m238.47 96.199h18.62l-8.47 17.551 16.96 45.52-40.66-46.19 13.55-16.881" fill="#48a6d0"/></g>
  <g><path d="m281.91 112.45h-32.66l7.84-16.251h16.98l7.84 16.251" fill="#8ad8e7"/></g>
  <g><path d="m305.73 112.45h-23.82l-7.84-16.251h18.62l13.04 16.251" fill="#91dbee"/></g>
  <g><path d="m225.43 112.45l13.04-16.251-13.04 16.251" fill="#f2fafb"/></g>
  <g><path d="m249.25 112.45h-23.82l13.04-16.251h18.62l-7.84 16.251" fill="#82c2dd"/></g>
  <g><path d="m159.62 122.13c-40.69 0-73.792 33.1-73.792 73.79s33.102 73.79 73.792 73.79 73.79-33.1 73.79-73.79-33.1-73.79-73.79-73.79m0 163.8c-24.04 0-46.65-9.36-63.647-26.36-17-17-26.364-39.61-26.364-63.65s9.364-46.64 26.364-63.64c16.997-17 39.607-26.37 63.647-26.37s46.65 9.37 63.65 26.37 26.36 39.6 26.36 63.64-9.36 46.65-26.36 63.65-39.61 26.36-63.65 26.36" fill="#f4b93a"/></g>
  <g><path d="m106.45 247.04c-12.63-13.13-20.454-30.91-20.618-50.48 0.164 19.57 7.992 37.35 20.618 50.47v0.01m-36.684-45.76m-0.004-0.07m-0.004-0.06v-0.01 0.01m-0.004-0.06v-0.03 0.03m-0.004-0.07v-0.03 0.03m-0.004-0.07v-0.03 0.03m-0.004-0.06v-0.05 0.05m0-0.07c-0.004-0.02-0.004-0.03-0.004-0.05 0 0.02 0 0.03 0.004 0.05m-0.004-0.07c-0.004-0.02-0.004-0.04-0.004-0.05 0 0.01 0 0.03 0.004 0.05m-0.004-0.06c-0.004-0.03-0.004-0.05-0.004-0.07 0 0.02 0 0.05 0.004 0.07m-0.004-0.07c-0.078-1.56-0.121-3.12-0.121-4.69 0 1.57 0.043 3.13 0.121 4.69m16.102-4.06v-0.06 0.06m0-0.06v-0.05 0.05m0-0.06c-0.004-0.02-0.004-0.03-0.004-0.05 0 0.02 0 0.03 0.004 0.05m-0.004-0.06v-0.05 0.05m0-0.06v-0.05 0.05m0-0.06v-0.05 0.05m0-0.06v-0.04 0.04m0-0.06v-0.04 0.04m0-0.06v-0.04 0.04m0-0.06v-0.04 0.04m0-0.07v-0.03 0.03m-16.219-0.03c0-24.04 9.364-46.64 26.364-63.64 16.997-17.01 39.597-26.37 63.647-26.37-24.04 0-46.65 9.37-63.647 26.37-17 17-26.364 39.6-26.364 63.64m141.12-53.17c-12.92-12.43-30.34-20.2-49.54-20.6 19.2 0.4 36.62 8.17 49.54 20.6m-49.55-20.6c-0.02 0-0.03-0.01-0.05-0.01 0.02 0 0.03 0.01 0.05 0.01m-0.06-0.01h-0.05 0.05m-0.06 0h-0.04 0.04m-0.05 0h-0.05 0.05m-0.06 0h-0.05 0.05m-0.06 0h-0.04 0.04m-0.06 0h-0.04 0.04m-0.06 0h-0.04 0.04m-0.06 0h-0.04 0.04m-0.06 0h-0.04 0.04m-0.06 0h-0.04 0.04m-0.05 0h-0.04 0.04m-0.07 0h-0.03 0.03m-0.06 0h-0.03 0.03m-0.05-0.01h-0.04 0.04m-0.06 0h-0.03 0.03m-0.06 0h-0.03 0.03m-0.06 0h-0.03 0.03m-0.06 0h-0.03 0.03m-0.06 0h-0.03 0.03m-0.06 0h-0.03 0.03m-0.06 0h-0.03 0.03m-0.06 0h-0.02 0.02m-0.06 0h-0.02 0.02m-0.06 0h-0.03 0.03m-0.06 0h-0.02 0.02m1.37-16.2h-0.01 0.01m-0.07 0h-0.01 0.01m-0.07-0.01h-0.01 0.01m-0.07 0h-0.01 0.01m-0.06 0h-0.02 0.02m-0.07 0h-0.02 0.02m-0.07 0h-0.02 0.02m-0.07 0h-0.02 0.02m-0.07 0h-0.02 0.02m-0.07 0h-0.02 0.02m-0.07 0h-0.02 0.02m-0.07-0.01h-0.02 0.02m-0.06 0h-0.04 0.04m-0.07 0h-0.03 0.03m-0.07 0h-0.04 0.04m-0.07 0h-0.04 0.04m-0.07 0h-0.04 0.04m-0.07 0h-0.03 0.03m-0.07 0h-0.04 0.04m-0.07 0h-0.05 0.05m-0.07 0h-0.07 0.07" fill="#fff"/></g>
  <g><path d="m94.957 258.52c-15.109-15.59-23.934-35.7-25.191-57.24 0-0.02 0-0.05-0.004-0.07 0-0.02 0-0.04-0.004-0.06v-0.01c0-0.02 0-0.04-0.004-0.05v-0.03c0-0.01 0-0.03-0.004-0.04v-0.03c0-0.01 0-0.03-0.004-0.04v-0.03c0-0.01 0-0.03-0.004-0.03v-0.05-0.02c-0.004-0.02-0.004-0.03-0.004-0.05v-0.02c-0.004-0.02-0.004-0.04-0.004-0.05v-0.01c-0.004-0.02-0.004-0.05-0.004-0.07-0.078-1.56-0.121-3.12-0.121-4.69v-0.01c0-24.04 9.364-46.64 26.364-63.64 16.997-17 39.607-26.37 63.647-26.37h0.07 0.02 0.05 0.03 0.04 0.04 0.03 0.03 0.04 0.03 0.04 0.03 0.04 0.04 0.03 0.03 0.04 0.04 0.02c0.02 0 0.03 0 0.05 0.01h0.02 0.05 0.02 0.05 0.02 0.05 0.02 0.05 0.02 0.05 0.02 0.05 0.02 0.05 0.01 0.06 0.01c0.02 0 0.04 0.01 0.06 0.01h0.01 0.06 0.01c23.01 0.36 44.62 9.31 61.15 25.33l-11.49 11.49c-12.92-12.43-30.34-20.2-49.54-20.6h-0.01c-0.02 0-0.03-0.01-0.05-0.01h-0.01-0.05-0.01-0.04-0.01-0.05-0.01-0.05-0.01-0.04-0.02-0.04-0.02-0.04-0.02-0.04-0.02-0.04-0.02-0.04-0.01-0.04-0.03-0.03-0.03-0.03c-0.01 0-0.02 0-0.02-0.01h-0.04-0.02-0.03-0.03-0.03-0.03-0.03-0.03-0.03-0.03-0.03-0.03-0.03-0.03-0.03-0.03-0.02-0.04-0.02-0.04-0.03-0.03-0.02-0.06c-0.66 0-1.31 0.01-1.96 0.03-39.79 1.04-71.832 33.73-71.832 73.76v0.03 0.03 0.04 0.02 0.04 0.02 0.04 0.02 0.04 0.01 0.05 0.01 0.05 0.01 0.05 0.01c0 0.02 0 0.03 0.004 0.05v0.01 0.05 0.06c0.164 19.57 7.988 37.35 20.618 50.48l-11.493 11.48" fill="#f7cd6d"/></g>
  <g><path d="m329.23 175.35c-17-17-39.61-26.37-63.65-26.37-9.22 0-18.23 1.39-26.79 4.04 2.61 4.81 4.77 9.84 6.46 15.03 6.46-1.85 13.28-2.85 20.33-2.85 40.69 0 73.79 33.1 73.79 73.79s-33.1 73.79-73.79 73.79c-23 0-43.57-10.58-57.12-27.12-0.17-0.22-0.35-0.45-0.53-0.66-0.24-0.32-0.49-0.63-0.74-0.95-0.17-0.23-0.35-0.46-0.53-0.69-0.34-0.45-0.67-0.91-1-1.36-0.18-0.25-0.36-0.51-0.54-0.76-0.24-0.35-0.48-0.7-0.72-1.05-0.23-0.35-0.46-0.69-0.69-1.04-0.21-0.33-0.43-0.67-0.64-1.01-0.17-0.26-0.34-0.52-0.5-0.79-0.29-0.48-0.58-0.96-0.86-1.45-3.95-6.8-6.84-14.29-8.45-22.24l-0.01-0.07c-0.1-0.48-0.19-0.95-0.27-1.42l-0.02-0.08c-0.09-0.49-0.17-0.98-0.25-1.47v-0.01c-0.48-3.03-0.78-6.13-0.88-9.27-0.03-0.78-0.04-1.56-0.04-2.35 0-27.86 15.53-52.17 38.38-64.72-1.62-5.26-3.81-10.28-6.51-14.97-7.9 4.17-15.22 9.55-21.72 16.05-17 17-26.37 39.6-26.37 63.64 0 0.78 0.02 1.57 0.04 2.35 0 0.21 0.01 0.43 0.01 0.64 0.01 0.25 0.02 0.51 0.03 0.77 0.02 0.48 0.05 0.96 0.07 1.45 0.01 0.21 0.03 0.43 0.04 0.64 0.03 0.37 0.05 0.75 0.08 1.12 0.02 0.21 0.04 0.43 0.05 0.64 0.03 0.35 0.06 0.69 0.09 1.03 0.02 0.21 0.04 0.42 0.07 0.62 0.03 0.37 0.07 0.73 0.11 1.09l0.06 0.54c0.06 0.46 0.12 0.91 0.18 1.35l0.03 0.27c0.16 1.12 0.34 2.25 0.53 3.36l0.04 0.24c0.09 0.48 0.18 0.97 0.28 1.45l0.05 0.25c0.1 0.51 0.21 1.01 0.31 1.52l0.03 0.11c0.5 2.28 1.08 4.52 1.76 6.74l0.01 0.04c2.17 7.17 5.24 14.04 9.14 20.45h0.01c3.71 6.11 8.17 11.8 13.35 16.98 17 17 39.6 26.36 63.64 26.36s46.65-9.36 63.65-26.36 26.36-39.6 26.36-63.65c0-24.04-9.36-46.64-26.36-63.64" fill="#dba922"/></g>
  <g><path d="m191.77 290.54c-1.12-1.6-2.18-3.22-3.18-4.88 1 1.66 2.07 3.28 3.18 4.88m-11.82-23.68c-2.88-8.88-4.38-18.26-4.38-27.87 0 0.79 0.02 1.57 0.04 2.35 0 0.21 0.01 0.43 0.01 0.64 0.01 0.25 0.02 0.51 0.03 0.77 0.02 0.48 0.05 0.96 0.07 1.45 0.01 0.21 0.03 0.43 0.04 0.64 0.03 0.37 0.05 0.75 0.08 1.12 0.02 0.21 0.04 0.43 0.05 0.64 0.03 0.35 0.06 0.69 0.09 1.03 0.02 0.21 0.04 0.42 0.07 0.62 0.03 0.37 0.07 0.73 0.11 1.09l0.06 0.54c0.06 0.46 0.12 0.91 0.18 1.35l0.03 0.27c0.16 1.12 0.34 2.25 0.53 3.36l0.04 0.24c0.09 0.48 0.18 0.97 0.28 1.45l0.05 0.25c0.1 0.51 0.21 1.01 0.31 1.52l0.03 0.11c0.5 2.28 1.08 4.52 1.76 6.74l0.01 0.04c0.16 0.55 0.34 1.1 0.51 1.65" fill="#fff"/></g>
  <g><path d="m183 274.91c-1.14-2.63-2.16-5.32-3.05-8.05 0.89 2.73 1.91 5.42 3.05 8.05" fill="#f7cd6d"/></g>
  <g><path d="m191.79 238.99m-16.22 0c0-24.04 9.37-46.64 26.37-63.64 6.5-6.5 13.81-11.89 21.72-16.06v0.01c-7.9 4.17-15.22 9.55-21.72 16.05-17 17-26.37 39.6-26.37 63.64" fill="#fff"/></g>
  <g><path d="m200.92 301.59c-3.37-3.47-6.42-7.17-9.15-11.05-1.11-1.6-2.18-3.22-3.18-4.88-2.11-3.46-3.98-7.05-5.59-10.75-1.14-2.63-2.16-5.32-3.05-8.05-0.17-0.55-0.35-1.1-0.51-1.65l-0.01-0.04c-0.68-2.22-1.26-4.46-1.76-6.74l-0.03-0.11c-0.1-0.51-0.21-1.01-0.31-1.52l-0.05-0.25c-0.1-0.48-0.19-0.97-0.28-1.45l-0.04-0.24c-0.19-1.11-0.37-2.24-0.53-3.36l-0.03-0.27c-0.06-0.44-0.12-0.89-0.18-1.35l-0.06-0.54c-0.04-0.36-0.08-0.72-0.11-1.09-0.03-0.2-0.05-0.41-0.07-0.62-0.03-0.34-0.06-0.68-0.09-1.03-0.01-0.21-0.03-0.43-0.05-0.64-0.03-0.37-0.05-0.75-0.08-1.12-0.01-0.21-0.03-0.43-0.04-0.64-0.02-0.49-0.05-0.97-0.07-1.45-0.01-0.26-0.02-0.52-0.03-0.77 0-0.21-0.01-0.43-0.01-0.64-0.02-0.78-0.04-1.56-0.04-2.35 0-24.04 9.37-46.64 26.37-63.64 6.5-6.5 13.82-11.88 21.72-16.05l6.47 14.99c-22.83 12.56-38.34 36.85-38.34 64.7 0 19.82 7.86 37.84 20.62 51.11l-11.49 11.49" fill="#e5bf58"/></g>
  <g><path d="m316.69 185.82c-9.94-9.56-22.54-16.37-36.57-19.18 14.03 2.81 26.63 9.62 36.58 19.18h-0.01" fill="#fff"/></g>
  <g><path d="m245.32 168.28l-6.51-15.21c2.6 4.79 4.76 9.8 6.44 14.98l0.07 0.23" fill="#f7cd6d"/></g>
  <g><path d="m280.12 166.64c-0.02 0-0.03-0.01-0.05-0.01 0.02 0 0.04 0.01 0.05 0.01m-0.07-0.02h-0.02 0.02m-0.06-0.01h-0.01 0.01m-41.2-13.59c5.85-1.82 11.91-3.04 18.1-3.63-6.19 0.6-12.25 1.82-18.1 3.63" fill="#fff"/></g>
  <g><path d="m261.78 149.06c1.24-0.05 2.49-0.08 3.75-0.08-1.26 0-2.51 0.03-3.75 0.08" fill="#83d6e6"/></g>
  <g><path d="m256.89 149.39c1.62-0.15 3.25-0.26 4.89-0.33-1.64 0.07-3.27 0.18-4.89 0.33" fill="#7cbcdb"/></g>
  <g><path d="m238.79 153.02" fill="#f7cd6d"/></g>
  <g><path d="m267.03 149m-0.07-0.01m-0.07 0m-0.07 0m-0.06 0h-0.02 0.02m-0.07 0h-0.01 0.01m-0.07 0h-0.02 0.02m-0.07 0h-0.02 0.02m-0.07 0h-0.02 0.02m-0.07 0h-0.02 0.02m-0.07 0c0-0.01-0.01-0.01-0.02-0.01 0.01 0 0.02 0 0.02 0.01m-0.06-0.01h-0.03 0.03m-0.07 0h-0.03 0.03m-0.07 0h-0.03 0.03m-0.07 0h-0.03 0.03m-0.07 0h-0.04 0.04m-0.07 0h-0.04 0.04m-0.07 0h-0.03 0.03m-0.07 0h-0.04 0.04m-0.07 0h-0.04 0.04m-0.07 0h-0.07 0.07" fill="#83d6e6"/></g>
  <g><path d="m316.7 185.82c-9.95-9.56-22.55-16.37-36.58-19.18-0.01 0-0.03-0.01-0.05-0.01 0 0-0.01 0-0.02-0.01h-0.02c-0.02 0-0.03 0-0.04-0.01h-0.01c-4.66-0.92-9.47-1.41-14.4-1.41-7.05 0-13.87 1-20.33 2.85-1.68-5.18-3.84-10.19-6.44-14.98l-0.02-0.05c5.85-1.81 11.91-3.03 18.1-3.63 1.62-0.15 3.25-0.26 4.89-0.33 1.24-0.05 2.49-0.08 3.75-0.08h0.05 0.07 0.03 0.04 0.03 0.04 0.04 0.03 0.03 0.04 0.03 0.04 0.04 0.03 0.04 0.03 0.04 0.03 0.04 0.03 0.04c0.01 0 0.02 0 0.02 0.01h0.05 0.02 0.05 0.02 0.05 0.02 0.05 0.02 0.06 0.01 0.05 0.02 0.06 0.07 0.07c0.02 0 0.04 0 0.07 0.01 23.02 0.36 44.62 9.31 61.15 25.33l-11.48 11.49" fill="#e5bf58"/></g>
 </g>
</svg>